# xmcd CD database file
#
# Track frame offsets:
#	150
#	14030
#	35036
#	50857
#	63711
#	80012
#	90752
#	103850
#	119307
#	130766
#
# Disc length: 1866 seconds
#
# Revision: 0
# Processed by: cddbd v1.5.2PL0 Copyright (c) Steve Scherf et al.
# Submitted via: CDex 1.79
#
DISCID=8c07480a
DTITLE=Claude Diallo - Nothing to Prove
DYEAR=2013
DGENRE=Jazz
TTITLE0=11:11
TTITLE1=My Romance
TTITLE2=Beauty and the Beast
TTITLE3=Wulumuqi Lu Blues
TTITLE4=Till There Was You
TTITLE5=Suicidal Motorcycle Ride Through Bangkok
TTITLE6=Mose Knows
TTITLE7=Good Bye Blanche Neige
TTITLE8=If I Were a Bell
TTITLE9=Soulfull Farewell
EXTD=YEAR: 2013
EXTT0=
EXTT1=
EXTT2=
EXTT3=
EXTT4=
EXTT5=
EXTT6=
EXTT7=
EXTT8=
EXTT9=
PLAYORDER=
